HIERARCHY
ROOT root
{
	OFFSET 0.000000 0.000000 0.000000
	CHANNELS 6 Xposition Yposition Zposition Zrotation Yrotation Xrotation
	JOINT lhip
	{
		OFFSET 0.058581 -0.082280 -0.017664
		CHANNELS 3 Zrotation Yrotation Xrotation
		JOINT lknee
		{
			OFFSET 0.043451 -0.386469 0.008037
			CHANNELS 3 Zrotation Yrotation Xrotation
			JOINT lankle
			{
				OFFSET -0.014790 -0.426874 -0.037428
				CHANNELS 3 Zrotation Yrotation Xrotation
				JOINT ltoe
				{
					OFFSET 0.041054 -0.060286 0.122042
					CHANNELS 3 Zrotation Yrotation Xrotation
					End Site
					{
						OFFSET 0.000000 0.000000 0.000000
					}
				}
			}
		}
	}
	JOINT rhip
	{
		OFFSET -0.060310 -0.090513 -0.013543
		CHANNELS 3 Zrotation Yrotation Xrotation
		JOINT rknee
		{
			OFFSET -0.043257 -0.383688 -0.004843
			CHANNELS 3 Zrotation Yrotation Xrotation
			JOINT rankle
			{
				OFFSET 0.019056 -0.420046 -0.034562
				CHANNELS 3 Zrotation Yrotation Xrotation
				JOINT rtoe
				{
					OFFSET -0.034840 -0.062106 0.130323
					CHANNELS 3 Zrotation Yrotation Xrotation
					End Site
					{
						OFFSET 0.000000 0.000000 0.000000
					}
				}
			}
		}
	}
	JOINT lowerback
	{
		OFFSET 0.004439 0.124404 -0.038385
		CHANNELS 3 Zrotation Yrotation Xrotation
		JOINT upperback
		{
			OFFSET 0.004488 0.137956 0.026820
			CHANNELS 3 Zrotation Yrotation Xrotation
			JOINT chest
			{
				OFFSET -0.002265 0.056032 0.002855
				CHANNELS 3 Zrotation Yrotation Xrotation
				JOINT lowerneck
				{
					OFFSET -0.013390 0.211636 -0.033468
					CHANNELS 3 Zrotation Yrotation Xrotation
					JOINT upperneck
					{
						OFFSET 0.010113 0.088937 0.050410
						CHANNELS 3 Zrotation Yrotation Xrotation
						End Site
						{
							OFFSET 0.000000 0.000000 0.000000
						}
					}
				}
				JOINT lclavicle
				{
					OFFSET 0.071702 0.114000 -0.018898
					CHANNELS 3 Zrotation Yrotation Xrotation
					JOINT lshoulder
					{
						OFFSET 0.122921 0.045205 -0.019046
						CHANNELS 3 Zrotation Yrotation Xrotation
						JOINT lelbow
						{
							OFFSET 0.255332 -0.015649 -0.022946
							CHANNELS 3 Zrotation Yrotation Xrotation
							JOINT lwrist
							{
								OFFSET 0.265709 0.012698 -0.007375
								CHANNELS 3 Zrotation Yrotation Xrotation
								End Site
								{
									OFFSET 0.000000 0.000000 0.000000
								}
							}
						}
					}
				}
				JOINT rclavicle
				{
					OFFSET -0.082954 0.112472 -0.023707
					CHANNELS 3 Zrotation Yrotation Xrotation
					JOINT rshoulder
					{
						OFFSET -0.113228 0.046853 -0.008472
						CHANNELS 3 Zrotation Yrotation Xrotation
						JOINT relbow
						{
							OFFSET -0.260127 -0.014369 -0.031269
							CHANNELS 3 Zrotation Yrotation Xrotation
							JOINT rwrist
							{
								OFFSET -0.269108 0.006794 -0.006027
								CHANNELS 3 Zrotation Yrotation Xrotation
								End Site
								{
									OFFSET 0.000000 0.000000 0.000000
								}
							}
						}
					}
				}
			}
		}
	}
}
MOTION
Frames: 11
Frame Time: 0.033333
0.332188 -1.013221 0.987290 -68.866131 1.882206 92.087167 19.332015 5.498567 -16.443513 -6.865187 -10.699507 16.142113 -1.857667 4.520177 -8.115240 0.000000 -0.000000 0.000000 0.877000 -9.412268 -5.772589 11.602984 -7.064555 0.067668 0.771393 -6.383905 -7.277318 0.000000 -0.000000 0.000000 -2.010125 4.093959 17.781376 3.838759 -1.365160 -8.003975 2.671526 -0.040357 3.412803 12.543289 3.851304 -1.190001 6.818558 -15.131107 -2.056810 -5.194143 5.836243 -12.497965 -12.232086 -30.109647 -22.123806 140.937532 -45.762613 -100.752067 22.469800 -22.594317 25.327665 6.584136 -3.342421 -7.639502 15.400490 6.332039 -26.042043 -135.663783 44.469059 -98.713523 -24.937967 16.744467 20.684296 
0.332587 -1.012641 0.987401 -68.798374 1.816708 92.137658 19.315311 5.540657 -16.479630 -6.814110 -10.612770 16.002113 -1.849704 4.382645 -8.037693 0.000000 -0.000000 0.000000 0.823363 -9.449830 -5.882400 11.608562 -7.237885 0.128442 0.889844 -6.254842 -7.338257 0.000000 -0.000000 0.000000 -1.938209 4.068834 17.869014 3.705712 -1.308499 -7.971821 2.564435 0.066247 3.384990 12.134831 4.047797 -0.511604 6.796940 -15.205861 -2.198304 -5.013111 5.935622 -12.550821 -12.492609 -30.293700 -22.001945 140.983116 -45.846247 -100.689287 22.308321 -22.537721 25.571416 6.489018 -3.342067 -7.547264 15.472013 6.412955 -26.109628 -135.741708 44.497127 -98.738363 -24.738013 16.836141 20.648585 
0.332727 -1.012349 0.987565 -68.747473 1.724143 92.105233 19.245816 5.512323 -16.391615 -6.803230 -10.632698 15.837894 -1.911159 4.270955 -7.974870 0.000000 -0.000000 0.000000 0.750715 -9.406006 -5.878092 11.554251 -7.328645 0.167529 0.924134 -6.268578 -7.385581 0.000000 -0.000000 0.000000 -1.842383 4.052135 17.935317 3.616480 -1.266416 -7.938366 2.502865 0.143743 3.365837 11.872508 4.026673 -0.099762 6.620518 -15.204188 -2.103448 -4.971241 5.919159 -12.561011 -12.566664 -30.308526 -21.969676 141.079289 -45.838758 -100.696938 22.164440 -22.482693 25.692877 6.374996 -3.246404 -7.578903 15.470004 6.333583 -26.078586 -135.800665 44.499395 -98.757732 -24.480583 16.839148 20.625738 
0.332602 -1.012346 0.987634 -68.692194 1.625929 92.035996 19.121132 5.439166 -16.275186 -6.790074 -10.738427 15.718696 -1.945458 4.281843 -7.937715 0.000000 -0.000000 0.000000 0.667812 -9.322099 -5.793169 11.485226 -7.319265 0.155735 0.851123 -6.398005 -7.448106 0.000000 -0.000000 0.000000 -1.695550 4.054824 17.907711 3.582767 -1.247061 -7.846584 2.465925 0.168996 3.318289 11.720392 3.838828 0.046875 6.309715 -15.137425 -1.749774 -5.035482 5.832004 -12.540035 -12.506026 -30.210132 -21.979401 141.171313 -45.799114 -100.732329 22.090156 -22.452815 25.635777 6.303536 -3.142422 -7.613801 15.308372 6.183835 -26.007616 -135.760837 44.467675 -98.717802 -24.367488 16.767623 20.641777 
0.332148 -1.012502 0.987624 -68.656148 1.535974 91.969753 18.992118 5.381681 -16.170810 -6.777016 -10.842748 15.689639 -1.928153 4.367970 -7.935227 0.000000 -0.000000 0.000000 0.562784 -9.288998 -5.677044 11.462232 -7.266229 0.142295 0.731142 -6.491253 -7.542990 0.000000 -0.000000 0.000000 -1.526821 4.078207 17.749558 3.583166 -1.243729 -7.685567 2.407046 0.164755 3.262931 11.697526 3.681551 0.038383 5.999792 -15.079406 -1.247851 -5.093524 5.817914 -12.549820 -12.406965 -30.211687 -21.991466 141.248610 -45.793957 -100.830868 22.140058 -22.470414 25.475073 6.316492 -3.134083 -7.628613 15.099769 6.102627 -25.935657 -135.585684 44.406522 -98.598734 -24.457386 16.711228 20.703547 
0.331375 -1.012727 0.987606 -68.627073 1.446461 91.909209 18.889239 5.353823 -16.064087 -6.806795 -10.913227 15.703428 -1.940011 4.410821 -7.938236 0.000000 -0.000000 0.000000 0.416018 -9.409832 -5.534340 11.519461 -7.203043 0.152652 0.658107 -6.430732 -7.614834 0.000000 -0.000000 0.000000 -1.391004 4.097649 17.477895 3.608092 -1.271210 -7.484002 2.337130 0.163905 3.236281 11.819542 3.563798 -0.095864 5.788582 -15.074126 -0.803106 -5.101103 5.888259 -12.576830 -12.358609 -30.379350 -22.011584 141.384805 -45.808584 -101.035228 22.251038 -22.525914 25.343925 6.379116 -3.228716 -7.633042 14.986262 6.153402 -25.937159 -135.361889 44.367990 -98.471255 -24.612413 16.711938 20.784738 
0.330355 -1.012982 0.987645 -68.575778 1.348005 91.837267 18.806719 5.289362 -15.909383 -6.847471 -10.950066 15.667748 -1.901043 4.463943 -7.943975 0.000000 -0.000000 0.000000 0.238550 -9.570162 -5.329593 11.626088 -7.136394 0.121229 0.646247 -6.350173 -7.631592 0.000000 -0.000000 0.000000 -1.301830 4.097673 17.161577 3.647847 -1.344829 -7.273316 2.279930 0.188566 3.197194 12.026740 3.377643 -0.289347 5.644464 -15.124986 -0.444522 -5.123787 5.905539 -12.586149 -12.300241 -30.566126 -22.048962 141.557091 -45.846938 -101.216931 22.299172 -22.552438 25.290965 6.390520 -3.307736 -7.711171 15.059355 6.190870 -25.933913 -135.227500 44.350384 -98.412013 -24.656630 16.701702 20.839116 
0.329103 -1.013226 0.987624 -68.530131 1.227237 91.761939 18.707847 5.174565 -15.694945 -6.855144 -11.016250 15.561928 -1.834518 4.570330 -7.971967 0.000000 -0.000000 0.000000 0.070836 -9.636526 -5.153333 11.670311 -7.074300 0.150714 0.645850 -6.382759 -7.672135 0.000000 -0.000000 0.000000 -1.278187 4.087422 16.840097 3.689087 -1.430789 -7.072355 2.231219 0.227605 3.089768 12.167390 3.202339 -0.237072 5.733526 -15.189137 -0.328109 -5.322306 5.819840 -12.560391 -11.929136 -30.706388 -22.168662 141.622001 -45.979618 -101.261367 22.321981 -22.515073 25.328209 6.380379 -3.301220 -7.824417 15.233487 6.166491 -25.861711 -135.191854 44.348108 -98.419831 -24.779982 16.704698 20.868875 
0.327529 -1.013371 0.987381 -68.519286 1.111951 91.683983 18.606087 5.121206 -15.465462 -6.850474 -11.176123 15.490246 -1.797552 4.691152 -8.063646 0.000000 -0.000000 0.000000 -0.007190 -9.601046 -5.034459 11.577935 -6.974898 0.271355 0.616672 -6.537821 -7.766528 0.000000 -0.000000 0.000000 -1.337791 4.033376 16.572476 3.764572 -1.483598 -6.918980 2.203512 0.259130 2.938887 12.183399 3.120741 -0.069211 6.065817 -15.147654 -0.379897 -5.708926 5.705613 -12.487326 -11.169614 -30.737152 -22.476566 141.534274 -46.175909 -101.260194 22.409440 -22.430818 25.460825 6.474251 -3.276150 -7.839639 15.251307 6.238221 -25.878193 -135.226528 44.433511 -98.546770 -25.068436 16.806064 20.963218 
0.325789 -1.013432 0.987256 -68.538477 1.046196 91.562638 18.556827 5.100771 -15.178294 -6.824800 -11.347983 15.447463 -1.752734 4.789781 -8.186151 0.000000 -0.000000 0.000000 0.012554 -9.526232 -4.884464 11.438133 -6.845583 0.438615 0.553675 -6.737532 -7.930187 0.000000 -0.000000 0.000000 -1.388091 3.943241 16.408889 3.834955 -1.496756 -6.827881 2.178842 0.285342 2.830123 12.313209 3.118680 -0.278739 6.280695 -15.105796 -0.277747 -5.918481 5.712782 -12.479777 -10.639568 -30.749434 -22.732188 141.422613 -46.277078 -101.251037 22.377902 -22.336051 25.634433 6.630853 -3.344250 -7.858614 15.143098 6.388921 -25.912517 -135.279565 44.510526 -98.680245 -25.135222 16.865809 21.044433 
0.324024 -1.013392 0.987162 -68.565846 1.008566 91.418905 18.544520 5.013613 -14.861023 -6.767974 -11.476114 15.399958 -1.723995 4.887141 -8.293133 0.000000 -0.000000 0.000000 0.068038 -9.412178 -4.727029 11.293296 -6.769595 0.641835 0.499478 -6.925512 -8.116433 0.000000 -0.000000 0.000000 -1.411194 3.856729 16.303365 3.876342 -1.476650 -6.806927 2.137204 0.280561 2.812600 12.524631 3.118218 -0.764827 6.329830 -15.096793 -0.039587 -5.924207 5.827154 -12.542397 -10.430500 -30.821019 -22.818319 141.298427 -46.298494 -101.193464 22.351678 -22.333653 25.644919 6.809214 -3.491457 -8.005398 15.052390 6.581508 -25.826602 -135.370814 44.548970 -98.772635 -25.082646 16.947057 21.113545 
